<svg width="1210" height="302" viewBox="0 0 1210 302" fill="none" xmlns="http://www.w3.org/2000/svg">
<path d="M103.011 116.436C97.966 121.337 91.9841 125.181 85.0652 127.967C78.1463 130.754 70.6268 132.148 62.5067 132.148C54.2905 132.148 46.7229 130.754 39.804 127.967C32.8851 125.133 26.8551 121.193 21.714 116.148C16.6209 111.054 12.6569 105.097 9.82211 98.2737C6.98729 91.4509 5.56987 84.0035 5.56987 75.9314C5.56987 67.8594 6.98729 60.412 9.82211 53.5892C12.6569 46.7183 16.6209 40.7604 21.714 35.7153C26.8551 30.6703 32.8851 26.7544 39.804 23.9676C46.7229 21.1328 54.2905 19.7154 62.5067 19.7154C70.5787 19.7154 78.0502 21.1088 84.921 23.8955C91.8399 26.6823 97.8219 30.5502 102.867 35.4991L87.3715 51.0666C84.3444 47.3669 80.6448 44.46 76.2724 42.3459C71.9481 40.1838 67.2394 39.1027 62.1463 39.1027C57.2935 39.1027 52.801 40.0396 48.6689 41.9135C44.5848 43.7393 41.0052 46.3339 37.9302 49.6973C34.8551 53.0126 32.4767 56.9045 30.795 61.3729C29.1134 65.8414 28.2725 70.6702 28.2725 75.8594C28.2725 81.1446 29.1134 86.0215 30.795 90.49C32.4767 94.9584 34.8551 98.8743 37.9302 102.238C41.0052 105.553 44.5848 108.148 48.6689 110.021C52.801 111.847 57.2935 112.76 62.1463 112.76C67.2394 112.76 71.9481 111.703 76.2724 109.589C80.5967 107.427 84.2724 104.496 87.2994 100.796L103.011 116.436Z" fill="white"/>
<path d="M150.725 131.427C143.326 131.427 136.695 129.817 130.833 126.598C124.971 123.331 120.359 118.886 116.995 113.265C113.68 107.595 112.022 101.157 112.022 93.9494C112.022 86.7903 113.68 80.3999 116.995 74.7783C120.359 69.1086 124.971 64.6402 130.833 61.3729C136.695 58.1057 143.326 56.472 150.725 56.472C158.124 56.472 164.707 58.1057 170.473 61.3729C176.286 64.6402 180.851 69.1086 184.166 74.7783C187.53 80.3999 189.211 86.7903 189.211 93.9494C189.211 101.157 187.53 107.595 184.166 113.265C180.851 118.886 176.286 123.331 170.473 126.598C164.707 129.817 158.124 131.427 150.725 131.427ZM150.653 112.904C153.968 112.904 156.923 112.087 159.518 110.454C162.16 108.772 164.226 106.514 165.716 103.679C167.253 100.796 168.022 97.505 168.022 93.8053C168.022 90.2497 167.253 87.0545 165.716 84.2197C164.226 81.3849 162.16 79.1506 159.518 77.517C156.923 75.8353 153.968 74.9945 150.653 74.9945C147.289 74.9945 144.286 75.8353 141.644 77.517C139.049 79.1506 136.983 81.3849 135.446 84.2197C133.956 87.0545 133.211 90.2497 133.211 93.8053C133.211 97.505 133.956 100.796 135.446 103.679C136.983 106.514 139.049 108.772 141.644 110.454C144.286 112.087 147.289 112.904 150.653 112.904Z" fill="white"/>
<path d="M288.238 129.985H264.598L253.067 85.517L241.535 129.985H217.895L194.616 57.9135H216.526L229.427 108.148L243.985 57.9135H262.076L276.706 108.364L289.607 57.9135H311.517L288.238 129.985Z" fill="white"/>
<path d="M355.628 131.427C348.229 131.427 341.598 129.817 335.737 126.598C329.875 123.331 325.262 118.886 321.899 113.265C318.584 107.595 316.926 101.157 316.926 93.9494C316.926 86.7903 318.584 80.3999 321.899 74.7783C325.262 69.1086 329.875 64.6402 335.737 61.3729C341.598 58.1057 348.229 56.472 355.628 56.472C363.028 56.472 369.61 58.1057 375.376 61.3729C381.19 64.6402 385.755 69.1086 389.07 74.7783C392.433 80.3999 394.115 86.7903 394.115 93.9494C394.115 101.157 392.433 107.595 389.07 113.265C385.755 118.886 381.19 123.331 375.376 126.598C369.61 129.817 363.028 131.427 355.628 131.427ZM355.556 112.904C358.872 112.904 361.827 112.087 364.421 110.454C367.064 108.772 369.13 106.514 370.619 103.679C372.157 100.796 372.926 97.505 372.926 93.8053C372.926 90.2497 372.157 87.0545 370.619 84.2197C369.13 81.3849 367.064 79.1506 364.421 77.517C361.827 75.8353 358.872 74.9945 355.556 74.9945C352.193 74.9945 349.19 75.8353 346.547 77.517C343.953 79.1506 341.887 81.3849 340.349 84.2197C338.86 87.0545 338.115 90.2497 338.115 93.8053C338.115 97.505 338.86 100.796 340.349 103.679C341.887 106.514 343.953 108.772 346.547 110.454C349.19 112.087 352.193 112.904 355.556 112.904Z" fill="white"/>
<path d="M426.979 129.985H406.295V57.9135H424.313L425.033 70.3819C427.436 66.0095 430.703 62.5981 434.835 60.1477C438.967 57.6972 443.7 56.472 449.033 56.472C450.571 56.472 452.108 56.5921 453.646 56.8324C455.231 57.0246 456.841 57.3369 458.475 57.7693L455.88 76.3639C452.709 75.451 449.706 74.9945 446.871 74.9945C442.883 74.9945 439.376 75.9074 436.349 77.7332C433.37 79.511 431.063 82.0095 429.43 85.2287C427.796 88.3999 426.979 92.1236 426.979 96.3999V129.985Z" fill="white"/>
<path d="M487.667 129.985H466.982V21.8775H487.667V88.3278L494.73 79.8233L515.487 57.9135H541.36L510.874 89.9855L544.964 129.985H518.225L496.676 102.958L487.667 111.175V129.985Z" fill="white"/>
<path d="M565.001 40.6883C562.262 40.6883 559.956 39.7273 558.082 37.8054C556.208 35.8835 555.271 33.5532 555.271 30.8144C555.271 28.0757 556.208 25.7694 558.082 23.8955C559.956 21.9736 562.262 21.0127 565.001 21.0127C567.788 21.0127 570.118 21.9736 571.992 23.8955C573.914 25.7694 574.875 28.0757 574.875 30.8144C574.875 33.5532 573.914 35.8835 571.992 37.8054C570.118 39.7273 567.788 40.6883 565.001 40.6883ZM575.379 129.985H554.695V57.9135H575.379V129.985Z" fill="white"/>
<path d="M664.108 129.985H643.423V93.0845C643.423 87.4629 642.078 83.0666 639.387 79.8954C636.744 76.6762 633.117 75.0666 628.504 75.0666C623.699 75.0666 619.88 76.7483 617.045 80.1116C614.258 83.4269 612.865 87.9434 612.865 93.6611V129.985H592.18V57.9135H608.901L609.621 69.445C612.216 65.2167 615.603 61.9975 619.784 59.7873C623.964 57.5771 628.889 56.472 634.558 56.472C643.735 56.472 650.943 59.3069 656.18 64.9765C661.465 70.5981 664.108 78.3819 664.108 88.3278V129.985Z" fill="white"/>
<path d="M708.791 130.85C702.304 130.85 696.49 129.241 691.349 126.021C686.208 122.754 682.172 118.334 679.241 112.76C676.31 107.139 674.845 100.772 674.845 93.6611C674.845 86.502 676.31 80.1356 679.241 74.5621C682.172 68.9885 686.208 64.5921 691.349 61.3729C696.49 58.1057 702.328 56.472 708.863 56.472C713.956 56.472 718.616 57.481 722.845 59.499C727.121 61.469 730.797 64.2077 733.872 67.7152L734.809 57.9135H752.971V127.967C752.971 135.943 751.217 142.886 747.709 148.796C744.25 154.754 739.349 159.343 733.007 162.562C726.664 165.829 719.241 167.463 710.737 167.463C698.917 167.463 688.202 163.763 678.592 156.364L686.953 139.499C693.343 145.793 700.791 148.94 709.295 148.94C713.86 148.94 717.848 148.027 721.259 146.202C724.719 144.376 727.409 141.829 729.331 138.562C731.301 135.295 732.286 131.499 732.286 127.175V121.265C729.307 124.244 725.824 126.598 721.836 128.328C717.848 130.009 713.499 130.85 708.791 130.85ZM714.124 112.4C717.487 112.4 720.538 111.679 723.277 110.238C726.016 108.748 728.202 106.706 729.836 104.112C731.469 101.469 732.286 98.4899 732.286 95.1746V92.0755C732.286 88.7602 731.445 85.8053 729.764 83.2107C728.13 80.6161 725.944 78.5981 723.205 77.1567C720.514 75.6672 717.487 74.9224 714.124 74.9224C710.664 74.9224 707.565 75.7392 704.827 77.3729C702.088 79.0065 699.926 81.2407 698.34 84.0756C696.755 86.8623 695.962 90.0575 695.962 93.6611C695.962 97.2647 696.755 100.484 698.34 103.319C699.926 106.154 702.088 108.388 704.827 110.021C707.565 111.607 710.664 112.4 714.124 112.4Z" fill="white"/>
<path d="M796.344 118.31L806.866 101.373C810.182 104.063 813.377 106.274 816.452 108.003C819.575 109.685 822.65 110.934 825.677 111.751C828.704 112.52 831.803 112.904 834.974 112.904C838.722 112.904 841.965 112.376 844.704 111.319C847.443 110.262 849.557 108.748 851.046 106.778C852.584 104.808 853.353 102.526 853.353 99.9314C853.353 96.9044 852.392 94.3578 850.47 92.2918C848.548 90.2257 846.025 88.4239 842.902 86.8864C839.827 85.3008 836.488 83.7873 832.884 82.3458C829.377 80.9044 825.845 79.3428 822.29 77.6612C818.782 75.9314 815.539 73.8894 812.56 71.5351C809.629 69.1807 807.251 66.3219 805.425 62.9585C803.647 59.5471 802.758 55.415 802.758 50.5621C802.758 44.2198 804.344 38.7423 807.515 34.1297C810.734 29.5171 815.13 25.9616 820.704 23.4631C826.278 20.9646 832.644 19.7154 839.803 19.7154C844.848 19.7154 850.085 20.388 855.515 21.7334C860.992 23.0787 866.446 25.1208 871.875 27.8595L863.154 45.8054C859.743 43.7393 856.067 42.1057 852.127 40.9045C848.187 39.7033 844.488 39.1027 841.028 39.1027C837.905 39.1027 835.166 39.5832 832.812 40.5441C830.506 41.5051 828.704 42.8504 827.407 44.5802C826.109 46.2618 825.461 48.2558 825.461 50.5621C825.461 53.3009 826.398 55.6792 828.272 57.6972C830.145 59.6672 832.572 61.421 835.551 62.9585C838.578 64.496 841.821 66.0336 845.281 67.5711C848.836 69.1086 852.416 70.7903 856.019 72.6161C859.671 74.442 862.986 76.6041 865.965 79.1026C868.992 81.553 871.419 84.508 873.244 87.9674C875.118 91.3788 876.055 95.4869 876.055 100.292C876.055 106.634 874.374 112.208 871.01 117.012C867.647 121.769 862.962 125.493 856.956 128.184C850.95 130.826 843.959 132.148 835.983 132.148C828.68 132.148 821.689 130.97 815.01 128.616C808.332 126.262 802.109 122.826 796.344 118.31Z" fill="white"/>
<path d="M909.856 166.021H889.099V57.9135H907.261L908.342 67.7152C911.417 64.2077 915.093 61.469 919.369 59.499C923.693 57.481 928.402 56.472 933.495 56.472C940.126 56.472 946.012 58.1057 951.153 61.3729C956.294 64.5921 960.354 69.0366 963.333 74.7062C966.312 80.3278 967.801 86.7422 967.801 93.9494C967.801 101.109 966.312 107.523 963.333 113.193C960.354 118.862 956.294 123.331 951.153 126.598C946.012 129.817 940.126 131.427 933.495 131.427C928.787 131.427 924.414 130.586 920.378 128.904C916.39 127.175 912.883 124.796 909.856 121.769V166.021ZM928.234 112.832C931.838 112.832 935.009 112.039 937.748 110.454C940.486 108.82 942.624 106.586 944.162 103.751C945.747 100.868 946.54 97.6011 946.54 93.9494C946.54 90.2497 945.747 86.9825 944.162 84.1476C942.624 81.3128 940.486 79.0786 937.748 77.4449C935.009 75.8113 931.862 74.9945 928.306 74.9945C924.943 74.9945 921.916 75.7392 919.225 77.2287C916.534 78.6702 914.348 80.6882 912.666 83.2828C911.033 85.8774 910.096 88.8563 909.856 92.2197V95.8233C910.096 99.0905 911.033 102.021 912.666 104.616C914.3 107.163 916.462 109.181 919.153 110.67C921.844 112.112 924.871 112.832 928.234 112.832Z" fill="white"/>
<path d="M1044.27 129.985H1026.25L1025.17 121.409C1022.53 124.58 1019.26 127.054 1015.37 128.832C1011.47 130.562 1007.2 131.427 1002.54 131.427C997.493 131.427 993 130.466 989.06 128.544C985.12 126.574 982.021 123.883 979.763 120.472C977.505 117.012 976.376 113.097 976.376 108.724C976.376 104.112 977.601 100.051 980.051 96.544C982.502 93.0365 985.865 90.2978 990.141 88.3278C994.466 86.3098 999.366 85.3008 1004.84 85.3008C1008.06 85.3008 1011.28 85.6611 1014.5 86.3819C1017.77 87.1026 1020.8 88.1116 1023.58 89.4089V87.535C1023.58 84.6521 1022.77 82.1777 1021.13 80.1116C1019.55 77.9975 1017.34 76.3639 1014.5 75.2107C1011.71 74.0576 1008.59 73.481 1005.13 73.481C1001.82 73.481 998.526 74.0095 995.258 75.0666C992.039 76.1236 989.06 77.7092 986.321 79.8233L980.7 64.0396C985.553 61.5411 990.454 59.6672 995.402 58.418C1000.4 57.1207 1005.23 56.472 1009.89 56.472C1016.9 56.472 1022.98 57.8654 1028.12 60.6522C1033.26 63.3909 1037.23 67.2828 1040.01 72.3278C1042.85 77.3248 1044.27 83.2587 1044.27 90.1296V129.985ZM1007.08 115.499C1009.82 115.499 1012.44 114.898 1014.93 113.697C1017.43 112.496 1019.45 110.862 1020.99 108.796C1022.57 106.73 1023.41 104.448 1023.51 101.949V101.445C1021.4 100.003 1019.04 98.8983 1016.45 98.1296C1013.9 97.3128 1011.31 96.9044 1008.66 96.9044C1004.72 96.9044 1001.5 97.7692 999.006 99.4989C996.508 101.229 995.258 103.463 995.258 106.202C995.258 107.979 995.763 109.589 996.772 111.03C997.829 112.424 999.246 113.529 1001.02 114.346C1002.8 115.115 1004.82 115.499 1007.08 115.499Z" fill="white"/>
<path d="M1123.32 118.526C1119.82 122.562 1115.52 125.733 1110.42 128.039C1105.33 130.298 1099.73 131.427 1093.63 131.427C1086.23 131.427 1079.6 129.817 1073.74 126.598C1067.92 123.331 1063.34 118.862 1059.97 113.193C1056.66 107.523 1055 101.109 1055 93.9494C1055 86.7422 1056.66 80.3278 1059.97 74.7062C1063.34 69.0366 1067.92 64.5921 1073.74 61.3729C1079.6 58.1057 1086.23 56.472 1093.63 56.472C1099.68 56.472 1105.26 57.6012 1110.35 59.8594C1115.44 62.1177 1119.74 65.2408 1123.25 69.2288L1111.07 81.9855C1109.2 79.8233 1106.82 78.1416 1103.94 76.9404C1101.1 75.6912 1098.12 75.0666 1095 75.0666C1091.4 75.0666 1088.18 75.8834 1085.34 77.517C1082.51 79.1026 1080.27 81.3128 1078.64 84.1476C1077 86.9344 1076.19 90.1536 1076.19 93.8053C1076.19 97.505 1077 100.796 1078.64 103.679C1080.27 106.562 1082.51 108.82 1085.34 110.454C1088.18 112.039 1091.4 112.832 1095 112.832C1098.12 112.832 1101.12 112.232 1104.01 111.03C1106.89 109.781 1109.24 108.075 1111.07 105.913L1123.32 118.526Z" fill="white"/>
<path d="M1201.45 121.913C1192.52 128.256 1182.74 131.427 1172.12 131.427C1164.24 131.427 1157.15 129.745 1150.86 126.382C1144.61 122.97 1139.66 118.358 1136.01 112.544C1132.41 106.73 1130.61 100.172 1130.61 92.8683C1130.61 85.9014 1132.24 79.6792 1135.51 74.2017C1138.82 68.7242 1143.32 64.3999 1148.99 61.2288C1154.66 58.0576 1161.09 56.472 1168.3 56.472C1175.75 56.472 1182.31 58.2258 1187.98 61.7333C1193.65 65.1927 1198.07 70.0456 1201.24 76.2918C1204.41 82.49 1205.99 89.6731 1205.99 97.8413V100.148H1152.88C1153.74 102.982 1155.16 105.481 1157.13 107.643C1159.1 109.757 1161.55 111.439 1164.48 112.688C1167.41 113.937 1170.78 114.562 1174.57 114.562C1181.92 114.562 1188.77 112.184 1195.11 107.427L1201.45 121.913ZM1151.94 89.6251H1186.9C1186.51 86.502 1185.53 83.7632 1183.94 81.4089C1182.4 79.0065 1180.36 77.1326 1177.81 75.7873C1175.32 74.442 1172.51 73.7693 1169.38 73.7693C1166.21 73.7693 1163.38 74.466 1160.88 75.8594C1158.43 77.2528 1156.43 79.1266 1154.9 81.481C1153.36 83.8353 1152.37 86.55 1151.94 89.6251Z" fill="white"/>
<path d="M35.8401 280.427H15.1554V226.806H2.54285V208.355H15.1554V197.112C15.1554 191.923 16.3807 187.31 18.8311 183.274C21.2815 179.19 24.6449 175.995 28.9212 173.689C33.2455 171.334 38.1464 170.157 43.6238 170.157C47.0833 170.157 50.6148 170.662 54.2184 171.671C57.822 172.632 61.3775 174.169 64.885 176.283L57.0292 192.355C55.4917 191.106 53.858 190.193 52.1283 189.617C50.4466 188.992 48.765 188.68 47.0833 188.68C43.9121 188.68 41.2455 189.785 39.0833 191.995C36.9211 194.205 35.8401 197.256 35.8401 201.148V208.355H57.3896V226.806H35.8401V280.427Z" fill="white"/>
<path d="M108.989 281.869C101.59 281.869 94.9592 280.259 89.0974 277.04C83.2355 273.773 78.6229 269.328 75.2596 263.707C71.9442 258.037 70.2866 251.598 70.2866 244.391C70.2866 237.232 71.9442 230.842 75.2596 225.22C78.6229 219.551 83.2355 215.082 89.0974 211.815C94.9592 208.548 101.59 206.914 108.989 206.914C116.389 206.914 122.971 208.548 128.737 211.815C134.551 215.082 139.115 219.551 142.431 225.22C145.794 230.842 147.476 237.232 147.476 244.391C147.476 251.598 145.794 258.037 142.431 263.707C139.115 269.328 134.551 273.773 128.737 277.04C122.971 280.259 116.389 281.869 108.989 281.869ZM108.917 263.346C112.232 263.346 115.187 262.529 117.782 260.896C120.425 259.214 122.491 256.956 123.98 254.121C125.518 251.238 126.286 247.947 126.286 244.247C126.286 240.692 125.518 237.496 123.98 234.662C122.491 231.827 120.425 229.593 117.782 227.959C115.187 226.277 112.232 225.436 108.917 225.436C105.554 225.436 102.551 226.277 99.9081 227.959C97.3136 229.593 95.2475 231.827 93.71 234.662C92.2205 237.496 91.4757 240.692 91.4757 244.247C91.4757 247.947 92.2205 251.238 93.71 254.121C95.2475 256.956 97.3136 259.214 99.9081 260.896C102.551 262.529 105.554 263.346 108.917 263.346Z" fill="white"/>
<path d="M180.34 280.427H159.655V208.355H177.673L178.394 220.824C180.796 216.451 184.064 213.04 188.196 210.59C192.328 208.139 197.061 206.914 202.394 206.914C203.931 206.914 205.469 207.034 207.006 207.274C208.592 207.466 210.202 207.779 211.835 208.211L209.241 226.806C206.07 225.893 203.067 225.436 200.232 225.436C196.244 225.436 192.736 226.349 189.709 228.175C186.73 229.953 184.424 232.451 182.79 235.671C181.157 238.842 180.34 242.565 180.34 246.842V280.427Z" fill="white"/>
<path d="M411.041 280.427H394.248L393.527 268.896C390.981 273.124 387.593 276.343 383.365 278.553C379.185 280.764 374.284 281.869 368.662 281.869C359.437 281.869 352.206 279.034 346.969 273.364C341.732 267.695 339.113 259.911 339.113 250.013V208.355H359.798V245.256C359.798 250.878 361.119 255.298 363.762 258.517C366.452 261.689 370.104 263.274 374.716 263.274C379.521 263.274 383.317 261.616 386.104 258.301C388.939 254.938 390.356 250.397 390.356 244.68V208.355H411.041V280.427Z" fill="white"/>
<path d="M247.799 268.752L258.321 251.815C261.637 254.505 264.832 256.716 267.907 258.445C271.03 260.127 274.105 261.376 277.132 262.193C280.159 262.962 283.258 263.346 286.429 263.346C290.177 263.346 293.42 262.818 296.159 261.761C298.898 260.704 301.012 259.19 302.502 257.22C304.039 255.25 304.808 252.968 304.808 250.373C304.808 247.346 303.847 244.8 301.925 242.734C300.003 240.668 297.481 238.866 294.357 237.328C291.282 235.743 287.943 234.229 284.339 232.788C280.832 231.346 277.3 229.785 273.745 228.103C270.237 226.373 266.994 224.331 264.015 221.977C261.084 219.623 258.706 216.764 256.88 213.4C255.102 209.989 254.213 205.857 254.213 201.004C254.213 194.662 255.799 189.184 258.97 184.572C262.189 179.959 266.586 176.403 272.159 173.905C277.733 171.407 284.099 170.157 291.258 170.157C296.303 170.157 301.541 170.83 306.97 172.175C312.447 173.521 317.901 175.563 323.33 178.301L314.61 196.247C311.198 194.181 307.523 192.548 303.583 191.346C299.643 190.145 295.943 189.545 292.484 189.545C289.36 189.545 286.622 190.025 284.267 190.986C281.961 191.947 280.159 193.292 278.862 195.022C277.565 196.704 276.916 198.698 276.916 201.004C276.916 203.743 277.853 206.121 279.727 208.139C281.601 210.109 284.027 211.863 287.006 213.4C290.033 214.938 293.276 216.475 296.736 218.013C300.291 219.551 303.871 221.232 307.474 223.058C311.126 224.884 314.441 227.046 317.42 229.544C320.447 231.995 322.874 234.95 324.7 238.409C326.574 241.821 327.51 245.929 327.51 250.734C327.51 257.076 325.829 262.65 322.465 267.454C319.102 272.211 314.417 275.935 308.411 278.625C302.405 281.268 295.414 282.589 287.438 282.589C280.135 282.589 273.144 281.412 266.466 279.058C259.787 276.704 253.565 273.268 247.799 268.752Z" fill="white"/>
<path d="M491.543 268.968C488.036 273.004 483.735 276.175 478.642 278.481C473.549 280.74 467.952 281.869 461.85 281.869C454.45 281.869 447.82 280.259 441.958 277.04C436.144 273.773 431.555 269.304 428.192 263.634C424.877 257.965 423.219 251.55 423.219 244.391C423.219 237.184 424.877 230.77 428.192 225.148C431.555 219.478 436.144 215.034 441.958 211.815C447.82 208.548 454.45 206.914 461.85 206.914C467.904 206.914 473.477 208.043 478.57 210.301C483.663 212.56 487.964 215.683 491.471 219.671L479.291 232.427C477.417 230.265 475.039 228.584 472.156 227.382C469.321 226.133 466.342 225.508 463.219 225.508C459.615 225.508 456.396 226.325 453.561 227.959C450.727 229.544 448.492 231.755 446.859 234.59C445.225 237.376 444.408 240.596 444.408 244.247C444.408 247.947 445.225 251.238 446.859 254.121C448.492 257.004 450.727 259.262 453.561 260.896C456.396 262.481 459.615 263.274 463.219 263.274C466.342 263.274 469.345 262.674 472.228 261.472C475.111 260.223 477.465 258.517 479.291 256.355L491.543 268.968Z" fill="white"/>
<path d="M567.152 268.968C563.645 273.004 559.344 276.175 554.251 278.481C549.158 280.74 543.561 281.869 537.459 281.869C530.059 281.869 523.429 280.259 517.567 277.04C511.753 273.773 507.164 269.304 503.801 263.634C500.486 257.965 498.828 251.55 498.828 244.391C498.828 237.184 500.486 230.77 503.801 225.148C507.164 219.478 511.753 215.034 517.567 211.815C523.429 208.548 530.059 206.914 537.459 206.914C543.513 206.914 549.086 208.043 554.179 210.301C559.272 212.56 563.573 215.683 567.08 219.671L554.9 232.427C553.026 230.265 550.648 228.584 547.765 227.382C544.93 226.133 541.951 225.508 538.828 225.508C535.224 225.508 532.005 226.325 529.17 227.959C526.335 229.544 524.101 231.755 522.468 234.59C520.834 237.376 520.017 240.596 520.017 244.247C520.017 247.947 520.834 251.238 522.468 254.121C524.101 257.004 526.335 259.262 529.17 260.896C532.005 262.481 535.224 263.274 538.828 263.274C541.951 263.274 544.954 262.674 547.837 261.472C550.72 260.223 553.074 258.517 554.9 256.355L567.152 268.968Z" fill="white"/>
<path d="M645.274 272.355C636.337 278.698 626.559 281.869 615.941 281.869C608.061 281.869 600.974 280.187 594.679 276.824C588.433 273.412 583.484 268.8 579.833 262.986C576.229 257.172 574.427 250.614 574.427 243.31C574.427 236.343 576.061 230.121 579.328 224.644C582.643 219.166 587.136 214.842 592.806 211.671C598.475 208.5 604.914 206.914 612.121 206.914C619.568 206.914 626.127 208.668 631.796 212.175C637.466 215.635 641.887 220.487 645.058 226.734C648.229 232.932 649.814 240.115 649.814 248.283V250.589H596.697C597.562 253.424 598.98 255.923 600.95 258.085C602.92 260.199 605.37 261.881 608.301 263.13C611.232 264.379 614.595 265.004 618.391 265.004C625.742 265.004 632.589 262.625 638.932 257.869L645.274 272.355ZM595.76 240.067H630.715C630.331 236.944 629.346 234.205 627.76 231.851C626.223 229.448 624.181 227.575 621.634 226.229C619.136 224.884 616.325 224.211 613.202 224.211C610.031 224.211 607.196 224.908 604.697 226.301C602.247 227.695 600.253 229.569 598.715 231.923C597.178 234.277 596.193 236.992 595.76 240.067Z" fill="white"/>
<path d="M656.953 274.229L661.494 256.644C662.935 258.229 664.857 259.695 667.259 261.04C669.71 262.385 672.329 263.466 675.115 264.283C677.95 265.052 680.617 265.436 683.115 265.436C686.094 265.436 688.425 264.884 690.106 263.779C691.788 262.625 692.629 261.088 692.629 259.166C692.629 257.58 692.052 256.259 690.899 255.202C689.794 254.097 688.28 253.136 686.359 252.319C684.485 251.454 682.395 250.614 680.088 249.797C676.965 248.595 673.746 247.202 670.431 245.617C667.163 244.031 664.401 241.869 662.142 239.13C659.884 236.391 658.755 232.764 658.755 228.247C658.755 223.923 659.884 220.175 662.142 217.004C664.401 213.785 667.596 211.31 671.728 209.581C675.86 207.803 680.665 206.914 686.142 206.914C695.031 206.914 703.896 209.148 712.737 213.617L706.899 229.977C705.361 228.776 703.44 227.671 701.133 226.662C698.827 225.605 696.449 224.764 693.998 224.139C691.596 223.514 689.434 223.202 687.512 223.202C685.157 223.202 683.307 223.683 681.962 224.644C680.665 225.605 680.016 226.926 680.016 228.608C680.016 229.857 680.473 230.986 681.386 231.995C682.298 232.956 683.644 233.893 685.422 234.806C687.247 235.671 689.482 236.608 692.124 237.617C695.392 238.818 698.683 240.259 701.998 241.941C705.361 243.574 708.172 245.785 710.431 248.571C712.737 251.31 713.89 254.962 713.89 259.526C713.89 263.995 712.665 267.911 710.214 271.274C707.812 274.637 704.401 277.256 699.98 279.13C695.608 280.956 690.467 281.869 684.557 281.869C674.707 281.869 665.506 279.322 656.953 274.229Z" fill="white"/>
<path d="M720.451 274.229L724.992 256.644C726.433 258.229 728.355 259.695 730.757 261.04C733.208 262.385 735.826 263.466 738.613 264.283C741.448 265.052 744.115 265.436 746.613 265.436C749.592 265.436 751.922 264.884 753.604 263.779C755.286 262.625 756.127 261.088 756.127 259.166C756.127 257.58 755.55 256.259 754.397 255.202C753.292 254.097 751.778 253.136 749.856 252.319C747.983 251.454 745.892 250.614 743.586 249.797C740.463 248.595 737.244 247.202 733.928 245.617C730.661 244.031 727.898 241.869 725.64 239.13C723.382 236.391 722.253 232.764 722.253 228.247C722.253 223.923 723.382 220.175 725.64 217.004C727.898 213.785 731.094 211.31 735.226 209.581C739.358 207.803 744.163 206.914 749.64 206.914C758.529 206.914 767.394 209.148 776.235 213.617L770.397 229.977C768.859 228.776 766.937 227.671 764.631 226.662C762.325 225.605 759.946 224.764 757.496 224.139C755.094 223.514 752.931 223.202 751.01 223.202C748.655 223.202 746.805 223.683 745.46 224.644C744.163 225.605 743.514 226.926 743.514 228.608C743.514 229.857 743.971 230.986 744.883 231.995C745.796 232.956 747.142 233.893 748.919 234.806C750.745 235.671 752.979 236.608 755.622 237.617C758.889 238.818 762.181 240.259 765.496 241.941C768.859 243.574 771.67 245.785 773.928 248.571C776.235 251.31 777.388 254.962 777.388 259.526C777.388 263.995 776.163 267.911 773.712 271.274C771.31 274.637 767.898 277.256 763.478 279.13C759.106 280.956 753.964 281.869 748.055 281.869C738.205 281.869 729.004 279.322 720.451 274.229Z" fill="white"/>
</svg>
